<mxfile host="app.diagrams.net" agent="Mozilla/5.0 (Macintosh; Intel Mac OS X 10_15_7) AppleWebKit/605.1.15 (KHTML, like Gecko) Version/18.1.1 Safari/605.1.15" version="24.9.1">
  <diagram name="Page-1" id="Fp199MQhqj1kCZIGCHeC">
    <mxGraphModel dx="822" dy="1678" grid="1" gridSize="10" guides="1" tooltips="1" connect="1" arrows="1" fold="1" page="1" pageScale="1" pageWidth="850" pageHeight="1100" math="0" shadow="0">
      <root>
        <mxCell id="0" />
        <mxCell id="1" parent="0" />
        <mxCell id="KPjrWkme4UnGY71Kr7mi-1" value="&lt;b&gt;&lt;font style=&quot;font-size: 20px;&quot;&gt;X&lt;/font&gt;&lt;/b&gt;" style="rounded=1;whiteSpace=wrap;html=1;fillColor=#d5e8d4;strokeColor=#82b366;" vertex="1" parent="1">
          <mxGeometry x="210" y="500" width="120" height="60" as="geometry" />
        </mxCell>
        <mxCell id="KPjrWkme4UnGY71Kr7mi-2" value="" style="endArrow=classic;html=1;rounded=0;exitX=0.5;exitY=0;exitDx=0;exitDy=0;" edge="1" parent="1" source="KPjrWkme4UnGY71Kr7mi-1" target="KPjrWkme4UnGY71Kr7mi-3">
          <mxGeometry width="50" height="50" relative="1" as="geometry">
            <mxPoint x="400" y="380" as="sourcePoint" />
            <mxPoint x="270" y="380" as="targetPoint" />
          </mxGeometry>
        </mxCell>
        <mxCell id="KPjrWkme4UnGY71Kr7mi-5" value="" style="edgeStyle=orthogonalEdgeStyle;rounded=0;orthogonalLoop=1;jettySize=auto;html=1;" edge="1" parent="1" source="KPjrWkme4UnGY71Kr7mi-3" target="KPjrWkme4UnGY71Kr7mi-4">
          <mxGeometry relative="1" as="geometry" />
        </mxCell>
        <mxCell id="KPjrWkme4UnGY71Kr7mi-3" value="&lt;b&gt;&lt;font style=&quot;font-size: 20px;&quot;&gt;H&lt;sub&gt;1&lt;/sub&gt;&lt;/font&gt;&lt;/b&gt;" style="rounded=1;whiteSpace=wrap;html=1;fillColor=#dae8fc;strokeColor=#6c8ebf;" vertex="1" parent="1">
          <mxGeometry x="210" y="340" width="120" height="60" as="geometry" />
        </mxCell>
        <mxCell id="KPjrWkme4UnGY71Kr7mi-7" value="" style="edgeStyle=orthogonalEdgeStyle;rounded=0;orthogonalLoop=1;jettySize=auto;html=1;" edge="1" parent="1" source="KPjrWkme4UnGY71Kr7mi-4" target="KPjrWkme4UnGY71Kr7mi-6">
          <mxGeometry relative="1" as="geometry" />
        </mxCell>
        <mxCell id="KPjrWkme4UnGY71Kr7mi-4" value="&lt;b style=&quot;text-align: start; caret-color: rgb(32, 33, 34); color: rgb(32, 33, 34); font-family: sans-serif;&quot;&gt;&lt;font style=&quot;font-size: 20px;&quot;&gt;ϕ&lt;/font&gt;&lt;/b&gt;" style="ellipse;whiteSpace=wrap;html=1;aspect=fixed;fillColor=#f8cecc;strokeColor=#b85450;" vertex="1" parent="1">
          <mxGeometry x="230" y="220" width="80" height="80" as="geometry" />
        </mxCell>
        <mxCell id="KPjrWkme4UnGY71Kr7mi-11" style="edgeStyle=orthogonalEdgeStyle;rounded=0;orthogonalLoop=1;jettySize=auto;html=1;exitX=0.5;exitY=0;exitDx=0;exitDy=0;entryX=0.5;entryY=1;entryDx=0;entryDy=0;" edge="1" parent="1" source="KPjrWkme4UnGY71Kr7mi-6" target="KPjrWkme4UnGY71Kr7mi-8">
          <mxGeometry relative="1" as="geometry" />
        </mxCell>
        <mxCell id="KPjrWkme4UnGY71Kr7mi-35" style="edgeStyle=orthogonalEdgeStyle;rounded=0;orthogonalLoop=1;jettySize=auto;html=1;exitX=1;exitY=0.5;exitDx=0;exitDy=0;entryX=0;entryY=0.5;entryDx=0;entryDy=0;" edge="1" parent="1" source="KPjrWkme4UnGY71Kr7mi-6" target="KPjrWkme4UnGY71Kr7mi-33">
          <mxGeometry relative="1" as="geometry" />
        </mxCell>
        <mxCell id="KPjrWkme4UnGY71Kr7mi-6" value="&lt;b&gt;&lt;font style=&quot;font-size: 20px;&quot;&gt;Z&lt;sub&gt;1&lt;/sub&gt;&lt;/font&gt;&lt;/b&gt;" style="rounded=1;whiteSpace=wrap;html=1;fillColor=#e1d5e7;strokeColor=#9673a6;" vertex="1" parent="1">
          <mxGeometry x="210" y="120" width="120" height="60" as="geometry" />
        </mxCell>
        <mxCell id="KPjrWkme4UnGY71Kr7mi-12" value="" style="edgeStyle=orthogonalEdgeStyle;rounded=0;orthogonalLoop=1;jettySize=auto;html=1;" edge="1" parent="1" source="KPjrWkme4UnGY71Kr7mi-8" target="KPjrWkme4UnGY71Kr7mi-9">
          <mxGeometry relative="1" as="geometry" />
        </mxCell>
        <mxCell id="KPjrWkme4UnGY71Kr7mi-8" value="&lt;b&gt;&lt;font style=&quot;font-size: 20px;&quot;&gt;H&lt;sub&gt;2&lt;/sub&gt;&lt;/font&gt;&lt;/b&gt;" style="rounded=1;whiteSpace=wrap;html=1;fillColor=#dae8fc;strokeColor=#6c8ebf;" vertex="1" parent="1">
          <mxGeometry x="210" y="-40" width="120" height="60" as="geometry" />
        </mxCell>
        <mxCell id="KPjrWkme4UnGY71Kr7mi-13" value="" style="edgeStyle=orthogonalEdgeStyle;rounded=0;orthogonalLoop=1;jettySize=auto;html=1;" edge="1" parent="1" source="KPjrWkme4UnGY71Kr7mi-9" target="KPjrWkme4UnGY71Kr7mi-10">
          <mxGeometry relative="1" as="geometry" />
        </mxCell>
        <mxCell id="KPjrWkme4UnGY71Kr7mi-9" value="&lt;b style=&quot;text-align: start; caret-color: rgb(32, 33, 34); color: rgb(32, 33, 34); font-family: sans-serif;&quot;&gt;&lt;font style=&quot;font-size: 20px;&quot;&gt;ϕ&lt;/font&gt;&lt;/b&gt;" style="ellipse;whiteSpace=wrap;html=1;aspect=fixed;fillColor=#f8cecc;strokeColor=#b85450;" vertex="1" parent="1">
          <mxGeometry x="230" y="-160" width="80" height="80" as="geometry" />
        </mxCell>
        <mxCell id="KPjrWkme4UnGY71Kr7mi-27" style="edgeStyle=orthogonalEdgeStyle;rounded=0;orthogonalLoop=1;jettySize=auto;html=1;exitX=1;exitY=0.5;exitDx=0;exitDy=0;entryX=0;entryY=0.5;entryDx=0;entryDy=0;" edge="1" parent="1" source="KPjrWkme4UnGY71Kr7mi-10" target="KPjrWkme4UnGY71Kr7mi-19">
          <mxGeometry relative="1" as="geometry" />
        </mxCell>
        <mxCell id="KPjrWkme4UnGY71Kr7mi-10" value="&lt;b&gt;&lt;font style=&quot;font-size: 20px;&quot;&gt;Z&lt;sub&gt;2&lt;/sub&gt;&lt;/font&gt;&lt;/b&gt;" style="rounded=1;whiteSpace=wrap;html=1;fillColor=#e1d5e7;strokeColor=#9673a6;" vertex="1" parent="1">
          <mxGeometry x="210" y="-260" width="120" height="60" as="geometry" />
        </mxCell>
        <mxCell id="KPjrWkme4UnGY71Kr7mi-14" value="&lt;font style=&quot;font-size: 18px;&quot;&gt;W&lt;sub&gt;1&lt;/sub&gt;&lt;/font&gt;" style="text;html=1;align=center;verticalAlign=middle;whiteSpace=wrap;rounded=0;" vertex="1" parent="1">
          <mxGeometry x="270" y="440" width="60" height="30" as="geometry" />
        </mxCell>
        <mxCell id="KPjrWkme4UnGY71Kr7mi-15" value="&lt;font style=&quot;font-size: 18px;&quot;&gt;W&lt;sub&gt;2&lt;/sub&gt;&lt;/font&gt;" style="text;html=1;align=center;verticalAlign=middle;whiteSpace=wrap;rounded=0;" vertex="1" parent="1">
          <mxGeometry x="270" y="60" width="60" height="30" as="geometry" />
        </mxCell>
        <mxCell id="KPjrWkme4UnGY71Kr7mi-16" value="&lt;span style=&quot;font-size: 20px;&quot;&gt;&lt;b&gt;e&lt;sub&gt;2&lt;/sub&gt;&lt;/b&gt;&lt;/span&gt;" style="rounded=1;whiteSpace=wrap;html=1;fillColor=#cdeb8b;strokeColor=#36393d;" vertex="1" parent="1">
          <mxGeometry x="520" y="-260" width="120" height="60" as="geometry" />
        </mxCell>
        <mxCell id="KPjrWkme4UnGY71Kr7mi-29" value="" style="edgeStyle=orthogonalEdgeStyle;rounded=0;orthogonalLoop=1;jettySize=auto;html=1;" edge="1" parent="1" source="KPjrWkme4UnGY71Kr7mi-17" target="KPjrWkme4UnGY71Kr7mi-18">
          <mxGeometry relative="1" as="geometry" />
        </mxCell>
        <mxCell id="KPjrWkme4UnGY71Kr7mi-17" value="&lt;font style=&quot;font-size: 19px;&quot;&gt;&lt;b&gt;H1 -&amp;nbsp;&lt;/b&gt;&lt;span style=&quot;white-space: pre-wrap; font-family: Arial, Arial_EmbeddedFont, Arial_MSFontService, sans-serif; text-align: left; background-color: rgb(245, 245, 245);&quot;&gt;β(E&lt;sub&gt;2&lt;/sub&gt;e&lt;sub&gt;2&lt;/sub&gt;)&lt;/span&gt;&lt;/font&gt;" style="rounded=1;whiteSpace=wrap;html=1;fillColor=#dae8fc;strokeColor=#6c8ebf;" vertex="1" parent="1">
          <mxGeometry x="520" y="340" width="120" height="60" as="geometry" />
        </mxCell>
        <mxCell id="KPjrWkme4UnGY71Kr7mi-32" style="edgeStyle=orthogonalEdgeStyle;rounded=0;orthogonalLoop=1;jettySize=auto;html=1;exitX=0;exitY=0.5;exitDx=0;exitDy=0;entryX=1;entryY=0.5;entryDx=0;entryDy=0;" edge="1" parent="1" source="KPjrWkme4UnGY71Kr7mi-18" target="KPjrWkme4UnGY71Kr7mi-30">
          <mxGeometry relative="1" as="geometry" />
        </mxCell>
        <mxCell id="KPjrWkme4UnGY71Kr7mi-18" value="&lt;b style=&quot;text-align: start; caret-color: rgb(32, 33, 34); color: rgb(32, 33, 34); font-family: sans-serif;&quot;&gt;&lt;font style=&quot;font-size: 20px;&quot;&gt;ϕ&lt;/font&gt;&lt;/b&gt;" style="ellipse;whiteSpace=wrap;html=1;aspect=fixed;fillColor=#f8cecc;strokeColor=#b85450;" vertex="1" parent="1">
          <mxGeometry x="540" y="220" width="80" height="80" as="geometry" />
        </mxCell>
        <mxCell id="KPjrWkme4UnGY71Kr7mi-28" style="edgeStyle=orthogonalEdgeStyle;rounded=0;orthogonalLoop=1;jettySize=auto;html=1;exitX=1;exitY=0.5;exitDx=0;exitDy=0;entryX=0;entryY=0.5;entryDx=0;entryDy=0;" edge="1" parent="1" source="KPjrWkme4UnGY71Kr7mi-19" target="KPjrWkme4UnGY71Kr7mi-16">
          <mxGeometry relative="1" as="geometry" />
        </mxCell>
        <mxCell id="KPjrWkme4UnGY71Kr7mi-19" value="&lt;font style=&quot;font-size: 20px;&quot;&gt;-&lt;/font&gt;" style="ellipse;whiteSpace=wrap;html=1;aspect=fixed;fillColor=#b0e3e6;strokeColor=#0e8088;" vertex="1" parent="1">
          <mxGeometry x="410" y="-250" width="40" height="40" as="geometry" />
        </mxCell>
        <mxCell id="KPjrWkme4UnGY71Kr7mi-23" value="" style="curved=1;endArrow=classic;html=1;rounded=0;exitX=1;exitY=0.5;exitDx=0;exitDy=0;entryX=1;entryY=0.5;entryDx=0;entryDy=0;" edge="1" parent="1" source="KPjrWkme4UnGY71Kr7mi-16" target="KPjrWkme4UnGY71Kr7mi-17">
          <mxGeometry width="50" height="50" relative="1" as="geometry">
            <mxPoint x="680" y="-190" as="sourcePoint" />
            <mxPoint x="680" y="370" as="targetPoint" />
            <Array as="points">
              <mxPoint x="690" y="-100" />
              <mxPoint x="690" y="80" />
              <mxPoint x="690" y="250" />
            </Array>
          </mxGeometry>
        </mxCell>
        <mxCell id="KPjrWkme4UnGY71Kr7mi-24" value="&lt;font style=&quot;font-size: 18px;&quot;&gt;E&lt;sub&gt;2&lt;/sub&gt;&lt;/font&gt;" style="text;html=1;align=center;verticalAlign=middle;whiteSpace=wrap;rounded=0;" vertex="1" parent="1">
          <mxGeometry x="640" y="-25" width="60" height="30" as="geometry" />
        </mxCell>
        <mxCell id="KPjrWkme4UnGY71Kr7mi-25" value="&lt;b&gt;&lt;font style=&quot;font-size: 20px;&quot;&gt;Y&lt;/font&gt;&lt;/b&gt;" style="rounded=1;whiteSpace=wrap;html=1;fillColor=#e1d5e7;strokeColor=#9673a6;" vertex="1" parent="1">
          <mxGeometry x="370" y="-380" width="120" height="60" as="geometry" />
        </mxCell>
        <mxCell id="KPjrWkme4UnGY71Kr7mi-26" value="" style="endArrow=classic;html=1;rounded=0;exitX=0.5;exitY=1;exitDx=0;exitDy=0;entryX=0.5;entryY=0;entryDx=0;entryDy=0;" edge="1" parent="1" source="KPjrWkme4UnGY71Kr7mi-25" target="KPjrWkme4UnGY71Kr7mi-19">
          <mxGeometry width="50" height="50" relative="1" as="geometry">
            <mxPoint x="580" y="-320" as="sourcePoint" />
            <mxPoint x="630" y="-370" as="targetPoint" />
          </mxGeometry>
        </mxCell>
        <mxCell id="KPjrWkme4UnGY71Kr7mi-34" style="edgeStyle=orthogonalEdgeStyle;rounded=0;orthogonalLoop=1;jettySize=auto;html=1;exitX=0.5;exitY=0;exitDx=0;exitDy=0;entryX=0.5;entryY=1;entryDx=0;entryDy=0;" edge="1" parent="1" source="KPjrWkme4UnGY71Kr7mi-30" target="KPjrWkme4UnGY71Kr7mi-33">
          <mxGeometry relative="1" as="geometry" />
        </mxCell>
        <mxCell id="KPjrWkme4UnGY71Kr7mi-30" value="&lt;span style=&quot;font-size: 20px;&quot;&gt;&lt;b&gt;Y&lt;sup&gt;1&lt;/sup&gt;&lt;sub&gt;z&lt;/sub&gt;&lt;/b&gt;&lt;/span&gt;" style="rounded=1;whiteSpace=wrap;html=1;fillColor=#e1d5e7;strokeColor=#9673a6;" vertex="1" parent="1">
          <mxGeometry x="380" y="230" width="120" height="60" as="geometry" />
        </mxCell>
        <mxCell id="KPjrWkme4UnGY71Kr7mi-37" style="edgeStyle=orthogonalEdgeStyle;rounded=0;orthogonalLoop=1;jettySize=auto;html=1;exitX=1;exitY=0.5;exitDx=0;exitDy=0;entryX=0;entryY=0.5;entryDx=0;entryDy=0;" edge="1" parent="1" source="KPjrWkme4UnGY71Kr7mi-33" target="KPjrWkme4UnGY71Kr7mi-36">
          <mxGeometry relative="1" as="geometry" />
        </mxCell>
        <mxCell id="KPjrWkme4UnGY71Kr7mi-33" value="&lt;font style=&quot;font-size: 20px;&quot;&gt;-&lt;/font&gt;" style="ellipse;whiteSpace=wrap;html=1;aspect=fixed;fillColor=#b0e3e6;strokeColor=#0e8088;" vertex="1" parent="1">
          <mxGeometry x="415" y="125" width="50" height="50" as="geometry" />
        </mxCell>
        <mxCell id="KPjrWkme4UnGY71Kr7mi-36" value="&lt;span style=&quot;font-size: 20px;&quot;&gt;&lt;b&gt;e&lt;sub&gt;1&lt;/sub&gt;&lt;/b&gt;&lt;/span&gt;" style="rounded=1;whiteSpace=wrap;html=1;fillColor=#cdeb8b;strokeColor=#36393d;" vertex="1" parent="1">
          <mxGeometry x="520" y="120" width="120" height="60" as="geometry" />
        </mxCell>
      </root>
    </mxGraphModel>
  </diagram>
</mxfile>
